<?xml version="1.0" standalone="no"?>
<!DOCTYPE svg PUBLIC "-//W3C//DTD SVG 20010904//EN"
 "http://www.w3.org/TR/2001/REC-SVG-20010904/DTD/svg10.dtd">
<svg version="1.0" xmlns="http://www.w3.org/2000/svg"
 width="2733.000000pt" height="842.000000pt" viewBox="0 0 2733.000000 842.000000"
 preserveAspectRatio="xMidYMid meet">
<metadata>
Created by potrace 1.16, written by Peter Selinger 2001-2019
</metadata>
<g transform="translate(0.000000,842.000000) scale(0.100000,-0.100000)"
fill="#000000" stroke="none">
<path d="M17346 8405 c-297 -56 -569 -222 -745 -455 -59 -78 -130 -207 -176
-320 -25 -63 -598 -1998 -860 -2905 -70 -242 -137 -471 -150 -510 -13 -38 -78
-256 -145 -484 -67 -228 -124 -420 -127 -427 -4 -12 161 -14 1028 -14 l1034 0
49 183 c126 472 176 664 180 697 3 19 21 96 41 170 81 301 216 849 265 1075
28 132 55 248 59 259 5 14 16 -1 46 -65 116 -249 245 -509 352 -709 192 -358
374 -710 378 -728 2 -10 98 -195 213 -412 705 -1327 989 -1854 1047 -1940 121
-180 299 -346 454 -424 87 -44 205 -80 316 -97 120 -19 529 -18 650 0 340 51
611 249 824 605 50 83 956 1771 1120 2089 l93 177 -485 0 c-266 0 -733 3
-1038 7 l-554 6 -63 -121 c-35 -67 -89 -179 -122 -248 l-59 -127 -123 247
-123 246 -187 0 -188 0 0 25 0 25 105 0 c98 0 105 1 105 20 0 16 7 20 31 20
17 0 37 7 45 14 16 16 -2 53 -286 571 -275 503 -336 611 -988 1765 -365 646
-689 1211 -721 1254 -147 207 -341 370 -542 456 -148 63 -251 82 -474 86 -148
2 -220 0 -279 -11z"/>
<path d="M24129 8409 c-168 -24 -331 -86 -466 -175 -129 -85 -310 -270 -405
-414 -63 -95 -1095 -1917 -1238 -2185 -23 -44 -128 -233 -233 -420 -189 -340
-257 -461 -336 -607 l-42 -78 25 0 c21 0 26 5 26 26 0 38 22 54 74 54 25 0 46
5 46 10 0 6 9 10 20 10 13 0 20 7 20 20 0 17 7 20 50 20 49 0 50 1 50 30 0 30
1 30 55 30 54 0 55 0 55 30 l0 30 60 0 c53 0 60 2 60 20 0 18 7 20 70 20 l70
0 0 50 0 50 53 0 c41 0 56 4 67 20 11 15 26 20 62 20 47 0 48 1 48 30 l0 30
70 0 70 0 0 30 c0 28 3 30 35 30 19 0 35 5 35 10 0 6 9 10 20 10 13 0 20 7 20
20 0 18 7 20 60 20 l60 0 0 30 c0 30 1 30 55 30 48 0 55 2 55 20 0 18 7 20 70
20 63 0 70 2 70 20 0 16 9 20 60 26 50 5 60 10 60 25 0 16 8 19 45 19 34 0 45
4 45 16 0 29 27 44 82 44 42 0 57 4 68 20 12 16 26 20 72 20 51 0 58 2 58 20
0 18 7 20 55 20 54 0 55 0 55 30 l0 30 70 0 c63 0 70 2 70 20 0 16 7 20 35 20
19 0 35 5 35 10 0 6 11 10 25 10 14 0 25 5 25 10 0 6 16 10 35 10 19 0 35 5
35 10 0 6 9 10 20 10 13 0 20 7 20 20 0 18 7 20 64 20 56 0 66 3 71 20 5 17
15 20 66 20 52 0 59 2 59 20 0 18 7 20 55 20 30 0 55 5 55 10 0 6 16 10 35 10
28 0 35 4 35 20 0 16 7 20 35 20 19 0 35 5 35 10 0 6 16 10 35 10 19 0 35 5
35 10 0 6 11 10 25 10 18 0 25 5 25 20 0 18 7 20 60 20 33 0 60 4 60 10 0 6
28 10 65 10 58 0 65 2 65 20 0 18 7 20 60 20 53 0 60 2 60 20 0 17 7 20 45 20
25 0 45 5 45 10 0 6 7 10 15 10 8 0 15 5 15 10 0 6 19 10 43 10 31 0 46 5 57
20 12 17 26 20 82 20 39 0 68 4 68 10 0 6 27 10 60 10 53 0 60 2 60 20 0 18 7
20 55 20 48 0 55 2 55 20 0 18 7 20 70 20 40 0 70 4 70 10 0 6 16 10 35 10 19
0 35 5 35 10 0 6 11 10 25 10 18 0 25 5 25 20 0 18 7 20 54 20 65 0 71 10 55
89 -13 67 -296 1055 -340 1191 -88 269 -238 493 -425 633 -158 119 -341 199
-528 232 -96 16 -357 19 -457 4z"/>
<path d="M1477 8268 c-132 -164 -1357 -1751 -1357 -1758 0 -7 1129 -10 3099
-10 2781 0 3112 -2 3223 -16 431 -56 708 -227 812 -502 34 -90 56 -186 56
-249 l0 -53 35 0 c28 0 35 4 35 20 0 17 7 20 50 20 28 0 50 5 50 10 0 6 6 10
13 10 9 0 30 48 56 128 24 70 49 141 56 157 7 17 29 71 50 120 121 294 327
626 545 880 100 116 332 343 435 425 44 35 86 69 93 75 24 22 -213 188 -438
308 -392 209 -819 335 -1398 412 -466 62 -279 58 -2944 62 l-2436 4 -35 -43z"/>
<path d="M11290 8299 c-969 -65 -1833 -359 -2475 -843 -632 -476 -1076 -1155
-1220 -1870 -50 -247 -59 -352 -59 -656 -1 -296 7 -391 54 -645 77 -415 238
-803 491 -1180 127 -189 243 -330 414 -501 307 -307 595 -513 1006 -718 495
-248 1011 -397 1589 -461 296 -32 530 -35 3210 -35 l2685 0 685 887 c377 487
686 890 688 894 2 5 -1562 10 -3475 12 l-3478 3 -128 22 c-352 59 -656 172
-902 337 -234 156 -407 341 -519 555 -22 41 -42 77 -46 80 -15 11 -64 150 -91
256 -88 350 -44 754 117 1075 234 468 693 799 1295 933 256 57 213 56 2204 56
l1831 0 685 896 c376 492 686 900 687 905 5 11 -5072 10 -5248 -2z"/>
<path d="M0 4075 l0 -855 2769 0 2769 0 768 -914 769 -915 1438 0 c790 -1
1437 1 1437 3 0 2 -60 67 -133 145 l-132 141 -116 53 c-438 202 -815 462
-1139 787 -440 440 -755 977 -900 1535 l-28 110 -1089 6 c-598 3 -1328 7
-1620 8 l-533 1 0 25 c0 25 1 25 85 25 78 0 85 2 85 20 0 16 7 20 30 20 17 0
30 5 30 10 0 6 20 10 45 10 l45 0 0 40 0 40 75 0 c73 0 75 1 75 25 0 24 2 25
75 25 l75 0 0 30 0 30 80 0 c73 0 80 2 80 20 0 18 7 20 65 20 63 0 65 1 65 26
0 34 22 54 59 54 17 0 31 5 31 10 0 6 9 10 20 10 13 0 20 7 20 20 0 17 7 20
40 20 36 0 40 3 40 25 0 23 4 25 45 25 43 0 45 1 45 30 0 29 1 30 50 30 43 0
50 3 50 20 0 18 7 20 55 20 l55 0 0 50 0 50 45 0 c25 0 45 5 45 10 0 7 -968
10 -2885 10 l-2885 0 0 -855z"/>
<path d="M24420 4160 c0 -6 20 -81 44 -168 25 -86 187 -683 361 -1327 173
-643 322 -1194 331 -1223 l15 -52 1070 0 c928 0 1070 2 1066 14 -3 8 -177 612
-387 1343 -210 730 -388 1349 -396 1376 l-16 47 -1044 0 c-695 0 -1044 -3
-1044 -10z"/>
<path d="M1627 840 c-87 -11 -200 -45 -253 -76 -60 -34 -130 -116 -151 -177
-13 -39 -18 -82 -18 -167 0 -105 2 -120 28 -175 68 -145 193 -213 437 -237
296 -29 565 41 654 170 53 77 61 108 61 247 0 120 -2 134 -26 186 -51 109
-152 178 -309 214 -87 20 -321 28 -423 15z m389 -234 c85 -26 114 -73 114
-184 0 -84 -22 -128 -79 -161 -93 -52 -418 -52 -511 0 -53 30 -80 86 -80 165
1 120 53 176 184 194 88 13 311 4 372 -14z"/>
<path d="M2905 839 c-259 -35 -390 -143 -415 -342 -19 -151 27 -301 113 -371
110 -89 233 -119 477 -119 203 0 286 14 397 68 85 42 143 102 174 184 32 81
32 251 0 332 -45 117 -158 200 -316 234 -87 19 -336 27 -430 14z m390 -230
c22 -6 56 -28 76 -48 45 -45 58 -107 41 -190 -22 -102 -80 -134 -264 -146
-123 -8 -267 7 -316 33 -68 35 -97 107 -85 205 11 92 69 142 182 158 74 10
315 3 366 -12z"/>
<path d="M3991 833 c-19 -10 -43 -29 -53 -44 -11 -14 -65 -182 -122 -375 -56
-192 -106 -359 -110 -371 l-7 -23 130 0 130 0 12 43 c6 23 35 131 63 239 l52
197 119 -225 c137 -259 146 -269 241 -269 108 0 111 3 265 301 66 127 105 192
107 179 3 -17 102 -392 118 -447 5 -16 20 -18 135 -18 71 0 129 3 129 6 0 27
-215 745 -229 764 -56 79 -184 78 -243 -1 -27 -36 -211 -362 -249 -441 l-22
-47 -73 132 c-139 254 -209 371 -236 390 -38 28 -114 33 -157 10z"/>
<path d="M8810 844 c-221 -27 -359 -104 -418 -232 -20 -44 -26 -77 -30 -154
-8 -167 37 -278 144 -354 183 -130 683 -136 883 -10 54 35 117 110 136 164 9
26 19 90 22 143 8 134 -17 215 -88 293 -93 102 -226 145 -464 151 -82 2 -166
1 -185 -1z m295 -225 c38 -5 86 -18 105 -27 49 -25 80 -89 80 -164 0 -83 -23
-133 -76 -164 -92 -54 -411 -56 -513 -4 -60 30 -84 87 -79 184 5 113 50 157
175 175 82 12 226 12 308 0z"/>
<path d="M9745 836 c-42 -19 -62 -44 -74 -96 -6 -26 -11 -187 -11 -382 l0
-338 120 0 120 0 2 230 3 230 255 -230 c174 -157 267 -233 292 -241 79 -25
157 17 177 95 7 29 11 168 11 390 l0 346 -120 0 -120 0 -2 -234 -3 -235 -250
226 c-137 124 -264 231 -282 239 -40 17 -79 17 -118 0z"/>
<path d="M15131 832 c-19 -9 -44 -30 -55 -45 -20 -27 -21 -42 -24 -398 l-3
-369 120 0 121 0 2 229 3 229 250 -225 c138 -124 264 -231 282 -239 65 -28
139 -7 173 48 19 32 20 50 20 406 l0 372 -115 0 -115 0 -2 -235 -3 -235 -250
225 c-137 125 -264 233 -282 241 -43 19 -81 18 -122 -4z"/>
<path d="M19001 832 c-19 -9 -43 -29 -54 -44 -14 -19 -237 -739 -237 -765 0
-2 58 -3 129 -3 l128 0 58 218 c31 119 60 227 64 239 5 17 32 -27 126 -205 78
-147 130 -232 148 -246 23 -17 43 -21 98 -21 65 0 70 2 103 35 27 27 228 386
250 445 6 18 12 1 61 -185 26 -102 54 -206 62 -232 l14 -48 130 0 c101 0 130
3 127 12 -2 7 -51 177 -109 377 -91 319 -108 369 -134 397 -52 55 -148 58
-206 6 -16 -15 -90 -134 -163 -264 l-133 -238 -113 203 c-63 111 -128 225
-146 253 -50 79 -128 105 -203 66z"/>
<path d="M20835 831 c-22 -10 -50 -29 -61 -42 -19 -21 -484 -674 -528 -742
l-18 -27 155 0 156 0 183 260 c101 143 185 260 188 260 5 0 201 -284 208 -302
2 -5 -73 -8 -166 -8 l-170 0 -76 -105 -76 -105 481 0 481 0 -35 48 c-18 26
-130 186 -247 357 -117 171 -227 327 -244 349 -55 71 -150 94 -231 57z"/>
<path d="M21733 834 c-20 -10 -40 -32 -53 -58 -19 -40 -20 -61 -20 -399 l0
-357 120 0 120 0 2 229 3 228 254 -228 c156 -140 268 -233 289 -240 34 -11 91
-5 125 13 10 5 27 24 37 41 19 30 20 53 20 405 l0 372 -120 0 -120 0 -2 -231
-3 -231 -243 218 c-134 121 -258 227 -275 237 -39 21 -92 22 -134 1z"/>
<path d="M23295 839 c-48 -14 -99 -75 -321 -389 -114 -162 -230 -325 -256
-362 l-48 -68 158 0 157 0 184 261 c148 211 186 258 196 247 6 -7 56 -77 109
-156 l97 -142 -173 0 -173 -1 -73 -102 -72 -102 240 -3 c133 -1 347 -1 476 0
l236 3 -252 365 c-139 201 -266 380 -284 399 -52 56 -121 74 -201 50z"/>
<path d="M95 730 c-47 -60 -85 -112 -85 -115 0 -3 173 -5 385 -5 329 0 390 -2
416 -15 62 -33 56 -104 -11 -137 -31 -16 -73 -18 -412 -18 l-378 0 0 -210 0
-210 130 0 130 0 0 105 0 105 190 0 190 0 87 -105 88 -105 172 0 c95 0 173 3
173 7 0 4 -55 63 -122 130 l-121 121 47 22 c56 27 122 99 136 149 16 58 12
161 -9 206 -25 56 -97 118 -165 144 -82 31 -205 41 -498 41 l-257 0 -86 -110z"/>
<path d="M5980 830 c-160 -20 -240 -94 -240 -224 0 -65 26 -127 65 -152 l25
-16 -32 -22 c-43 -29 -68 -75 -75 -138 -8 -78 11 -136 61 -184 71 -68 110 -74
473 -74 l312 0 79 102 80 103 -139 3 -139 3 0 54 0 55 68 0 68 0 62 84 c34 46
62 86 62 90 0 3 -153 6 -341 6 -215 0 -347 4 -360 10 -21 12 -25 50 -7 68 8 8
50 12 124 12 l113 0 80 104 c45 57 81 109 81 115 0 13 -315 13 -420 1z m260
-545 l0 -55 -89 0 c-111 0 -149 7 -162 32 -29 53 17 76 159 77 l92 1 0 -55z"/>
<path d="M7648 830 c-174 -21 -314 -111 -374 -243 -25 -54 -29 -74 -29 -157 0
-82 4 -103 27 -153 35 -74 113 -156 187 -195 103 -56 148 -62 432 -62 l258 0
79 103 80 102 -322 5 c-227 4 -330 10 -351 19 -164 70 -178 258 -24 335 53 26
54 26 293 27 l241 0 80 106 c44 59 82 110 83 115 5 10 -569 8 -660 -2z"/>
<path d="M10770 430 l0 -410 135 0 135 0 0 145 0 145 228 0 227 1 77 102 77
102 -304 3 -305 2 0 45 0 45 243 0 244 0 77 100 c42 56 79 107 83 115 4 13
-55 15 -456 15 l-461 0 0 -410z"/>
<path d="M11770 430 l0 -410 394 0 395 0 79 103 80 102 -344 3 -344 2 0 50 0
50 248 0 247 1 70 91 c39 50 72 94 73 99 2 5 -138 9 -317 9 l-321 0 0 40 0 40
259 0 259 0 81 105 c45 57 81 109 81 115 0 7 -152 10 -470 10 l-470 0 0 -410z"/>
<path d="M12875 736 c-44 -58 -81 -110 -83 -116 -3 -7 124 -10 386 -10 l390 0
31 -26 c52 -43 35 -108 -35 -134 -15 -6 -185 -10 -400 -10 l-374 0 0 -210 0
-210 130 0 130 0 0 105 0 105 188 0 188 0 88 -105 88 -105 176 0 176 0 -34 38
c-19 20 -75 78 -124 129 -50 51 -88 94 -85 96 2 2 24 12 47 22 91 40 149 146
140 259 -8 101 -55 169 -147 217 -87 45 -138 51 -476 56 l-320 4 -80 -105z"/>
<path d="M14030 430 l0 -410 398 0 397 1 78 102 78 102 -346 3 -345 2 0 50 0
50 248 0 248 0 68 86 c37 47 70 92 73 100 4 12 -45 14 -316 14 l-321 0 0 40 0
40 263 0 262 1 80 105 c44 59 82 110 83 115 2 5 -198 9 -472 9 l-476 0 0 -410z"/>
<path d="M16545 830 c-187 -20 -329 -119 -385 -267 -31 -83 -26 -216 13 -294
54 -111 136 -179 270 -224 73 -24 83 -25 339 -25 l263 0 75 97 c41 53 76 100
78 104 2 4 -140 9 -315 11 -300 3 -321 4 -363 24 -88 42 -125 98 -118 181 5
63 42 115 104 147 36 19 59 21 285 24 l247 3 76 99 c42 54 79 106 82 114 5 14
-26 16 -287 15 -162 -1 -325 -5 -364 -9z"/>
<path d="M17280 430 l0 -410 398 0 397 1 77 102 77 102 -344 3 -345 2 0 50 0
50 248 0 248 0 69 90 c39 50 72 95 73 100 2 6 -115 10 -317 10 l-321 0 0 40 0
40 262 2 262 3 83 105 c45 58 82 108 83 113 0 4 -214 7 -475 7 l-475 0 0 -410z"/>
<path d="M24368 830 c-176 -21 -312 -109 -375 -245 -25 -53 -28 -72 -28 -155
0 -82 4 -103 27 -153 35 -74 113 -156 187 -195 107 -58 142 -62 503 -62 l328
0 0 255 0 255 -263 0 -263 0 -69 -85 c-39 -46 -71 -89 -73 -95 -3 -7 63 -10
202 -10 l206 0 0 -56 0 -56 -182 4 c-157 3 -189 7 -228 24 -154 70 -159 253
-9 328 53 26 54 26 298 26 l246 1 80 105 c44 59 82 110 83 115 4 11 -575 10
-670 -1z"/>
<path d="M25150 430 l0 -410 394 0 395 0 80 103 80 102 -344 3 -345 2 0 50 0
50 248 0 247 0 73 94 c39 52 72 97 72 100 0 3 -144 6 -320 6 l-320 0 0 40 0
40 260 0 259 0 86 110 c47 60 85 112 85 115 0 3 -214 5 -475 5 l-475 0 0 -410z"/>
<path d="M26255 735 c-44 -58 -81 -110 -83 -115 -2 -6 137 -10 383 -10 326 0
391 -2 415 -15 57 -29 51 -107 -10 -137 -31 -16 -73 -18 -412 -18 l-378 0 0
-210 0 -210 130 0 130 0 0 105 0 105 188 0 189 0 88 -105 88 -105 174 0 175 0
-40 48 c-22 26 -77 83 -121 127 -45 44 -81 82 -81 85 0 3 16 12 36 19 85 31
143 115 152 218 12 154 -72 256 -247 301 -41 10 -144 15 -376 18 l-320 5 -80
-106z"/>
</g>
</svg>
